# xmcd
# Track frame offsets:
# 150
# 15762
# 33396
# 51452
# 62696
# 80185
# 96790
# 114493
# 130384
#
# Disc length: 1943 seconds
# Revision: 0
# Processed by: cddbd v1.5.1PL0 Copyright (c) Steve Scherf et al.
# Submitted via: VisiTrax 2.9.10.228 - For more info visit www.synapsa.com
#
DISCID=73079509
DTITLE=Various Artist - Hits Monthly Nashville  PHN0403
DYEAR=1900
DGENRE=Karaoke
TTITLE0=Walker, Clay - I Can't Sleep
TTITLE1=Black, Clint - Spend My Time
TTITLE2=Urban, Keith - You'll Think Of Me
TTITLE3=Strait, George - Honk If You Honky Tonk
TTITLE4=Lawrence, Tracy - Paint Me A Birmingham
TTITLE5=McComas, Brian - You're In My Head
TTITLE6=Otto, James - Days Of Our Lives
TTITLE7=Green, Pat - Guy Like Me, A
TTITLE8=Brock, Chad - You Are
EXTD=
EXTT0=
EXTT1=
EXTT2=
EXTT3=
EXTT4=
EXTT5=
EXTT6=
EXTT7=
EXTT8=
PLAYORDER=
